<svg width="121" height="26" viewBox="0 0 121 26" fill="none" xmlns="http://www.w3.org/2000/svg">
<path d="M8.81351 0.553347C7.75332 0.805009 6.85376 1.93481 6.54855 3.41266C5.93813 6.37907 7.58733 9.87022 9.78269 10.2397C10.9018 10.4271 11.9727 9.80061 12.5403 8.62262C12.8241 8.03362 12.974 7.49281 13.065 6.72711C13.3274 4.43538 12.0369 1.54393 10.4038 0.767528C9.87371 0.515865 9.30078 0.435547 8.81351 0.553347Z" fill="#02273A"/>
<path d="M18.4732 0.553293C17.5683 0.729993 16.5777 1.63491 15.9727 2.84503C15.6942 3.4019 15.3783 4.38713 15.2712 5.04039C15.1427 5.84892 15.1909 7.08046 15.3783 7.77655C15.8013 9.29188 16.6099 10.1218 17.8039 10.261C19.2978 10.4377 20.8399 9.04557 21.5307 6.89305C21.7181 6.30405 21.7716 6.02562 21.8359 5.35095C21.8894 4.71911 21.8359 3.89452 21.6967 3.28946C21.2469 1.35112 19.9618 0.258794 18.4732 0.553293Z" fill="#02273A"/>
<path d="M1.87393 7.02694C1.00114 7.15545 0.294341 7.92651 0.0640964 9.01347C-0.107249 9.81665 0.0748055 11.0696 0.492459 11.9745C1.12429 13.3506 2.33442 14.4751 3.40533 14.6839C4.7868 14.957 5.92731 14.0681 6.18968 12.526C6.29142 11.921 6.23787 11.3213 6.01298 10.5342C5.52572 8.85819 4.16567 7.37499 2.85381 7.0912C2.43616 7.00017 2.17914 6.98411 1.87393 7.02694Z" fill="#02273A"/>
<path d="M25.5573 7.03239C24.7809 7.14484 23.8278 7.8088 23.1584 8.70836C22.0768 10.1701 21.7395 12.2263 22.3767 13.4953C22.8693 14.4912 23.9723 14.9624 25.0325 14.6412C26.2373 14.2717 27.4046 13.0455 27.9186 11.6052C28.2453 10.6895 28.3363 9.74714 28.1756 8.97073C27.9561 7.89983 27.2654 7.18232 26.2962 7.02704C26.1249 6.99491 25.9642 6.97885 25.9321 6.97885C25.9053 6.9842 25.734 7.00562 25.5573 7.03239Z" fill="#02273A"/>
<path d="M13.5363 11.5622C12.2031 11.7067 10.7413 12.3814 9.33304 13.5112C8.72262 13.9985 7.59282 15.1443 7.03594 15.8351C5.84724 17.3236 5.22611 18.5338 4.96374 19.8885C4.36939 22.9459 6.40411 25.5 9.43478 25.5C10.1041 25.5 10.7895 25.3768 11.839 25.0716C12.8135 24.7825 13.3275 24.6968 14.0504 24.6968C14.7411 24.6968 15.389 24.7986 16.1065 25.0127C17.3756 25.3983 17.9164 25.5 18.7035 25.5C20.69 25.5 22.3713 24.4452 23.046 22.7799C23.2762 22.2123 23.3459 21.8482 23.3726 21.1093C23.394 20.5685 23.378 20.2686 23.3137 19.9152C22.9978 18.2553 21.8948 16.4401 20.1278 14.6839C19.3621 13.9182 18.5321 13.2274 17.8896 12.8044C16.4599 11.8727 14.875 11.4176 13.5363 11.5622Z" fill="#02273A"/>
<path d="M39.4008 18.5V6.86364H43.7644C44.6584 6.86364 45.4084 7.0303 46.0144 7.36364C46.6243 7.69697 47.0845 8.1553 47.3951 8.73864C47.7095 9.31818 47.8667 9.97727 47.8667 10.7159C47.8667 11.4621 47.7095 12.125 47.3951 12.7045C47.0807 13.2841 46.6167 13.7405 46.0031 14.0739C45.3894 14.4034 44.6337 14.5682 43.736 14.5682H40.844V12.8352H43.4519C43.9746 12.8352 44.4027 12.7443 44.736 12.5625C45.0693 12.3807 45.3156 12.1307 45.4746 11.8125C45.6375 11.4943 45.719 11.1288 45.719 10.7159C45.719 10.303 45.6375 9.93939 45.4746 9.625C45.3156 9.31061 45.0674 9.06629 44.7303 8.89205C44.397 8.71402 43.9671 8.625 43.4406 8.625H41.5087V18.5H39.4008ZM53.0254 18.6705C52.1504 18.6705 51.3947 18.4886 50.7583 18.125C50.1258 17.7576 49.639 17.2386 49.2981 16.5682C48.9572 15.8939 48.7867 15.1004 48.7867 14.1875C48.7867 13.2898 48.9572 12.5019 49.2981 11.8239C49.6428 11.142 50.1239 10.6117 50.7413 10.233C51.3587 9.85038 52.0841 9.65909 52.9174 9.65909C53.4553 9.65909 53.9629 9.74621 54.4402 9.92045C54.9212 10.0909 55.3455 10.3561 55.7129 10.7159C56.0841 11.0758 56.3758 11.5341 56.5879 12.0909C56.8 12.6439 56.9061 13.303 56.9061 14.0682V14.6989H49.7527V13.3125H54.9345C54.9307 12.9186 54.8455 12.5682 54.6788 12.2614C54.5121 11.9508 54.2792 11.7064 53.9799 11.5284C53.6845 11.3504 53.3398 11.2614 52.9458 11.2614C52.5254 11.2614 52.1561 11.3636 51.8379 11.5682C51.5197 11.7689 51.2716 12.0341 51.0936 12.3636C50.9193 12.6894 50.8303 13.0473 50.8265 13.4375V14.6477C50.8265 15.1553 50.9193 15.5909 51.1049 15.9545C51.2905 16.3144 51.55 16.5909 51.8833 16.7841C52.2167 16.9735 52.6068 17.0682 53.0538 17.0682C53.353 17.0682 53.6239 17.0265 53.8663 16.9432C54.1087 16.8561 54.3189 16.7292 54.497 16.5625C54.675 16.3958 54.8095 16.1894 54.9004 15.9432L56.8208 16.1591C56.6996 16.6667 56.4686 17.1098 56.1277 17.4886C55.7905 17.8636 55.3587 18.1553 54.8322 18.3636C54.3057 18.5682 53.7034 18.6705 53.0254 18.6705ZM62.6841 9.77273V11.3636H57.667V9.77273H62.6841ZM58.9057 7.68182H60.9625V15.875C60.9625 16.1515 61.0042 16.3636 61.0875 16.5114C61.1746 16.6553 61.2882 16.7538 61.4284 16.8068C61.5685 16.8598 61.7238 16.8864 61.8943 16.8864C62.0231 16.8864 62.1405 16.8769 62.2466 16.858C62.3564 16.839 62.4398 16.822 62.4966 16.8068L62.8432 18.4148C62.7333 18.4527 62.5761 18.4943 62.3716 18.5398C62.1708 18.5852 61.9246 18.6117 61.6329 18.6193C61.1178 18.6345 60.6538 18.5568 60.2409 18.3864C59.828 18.2121 59.5004 17.9432 59.2579 17.5795C59.0193 17.2159 58.9019 16.7614 58.9057 16.2159V7.68182ZM63.1169 8.63068V6.86364H72.401V8.63068H68.8044V18.5H66.7135V8.63068H63.1169ZM72.8736 18.5V9.77273H74.8679V11.2273H74.9588C75.1179 10.7235 75.3907 10.3352 75.777 10.0625C76.1672 9.78598 76.6123 9.64773 77.1123 9.64773C77.2259 9.64773 77.3528 9.65341 77.4929 9.66477C77.6369 9.67235 77.7562 9.68561 77.8509 9.70455V11.5966C77.7638 11.5663 77.6255 11.5398 77.4361 11.517C77.2505 11.4905 77.0706 11.4773 76.8963 11.4773C76.5213 11.4773 76.1842 11.5587 75.885 11.7216C75.5895 11.8807 75.3566 12.1023 75.1861 12.3864C75.0157 12.6705 74.9304 12.9981 74.9304 13.3693V18.5H72.8736ZM81.2525 18.6761C80.6995 18.6761 80.2013 18.5777 79.7582 18.3807C79.3188 18.1799 78.9703 17.8845 78.7127 17.4943C78.4589 17.1042 78.332 16.6231 78.332 16.0511C78.332 15.5587 78.4229 15.1515 78.6048 14.8295C78.7866 14.5076 79.0347 14.25 79.3491 14.0568C79.6635 13.8636 80.0176 13.7178 80.4116 13.6193C80.8093 13.517 81.2203 13.4432 81.6445 13.3977C82.1559 13.3447 82.5707 13.2973 82.8888 13.2557C83.207 13.2102 83.4381 13.142 83.582 13.0511C83.7298 12.9564 83.8036 12.8106 83.8036 12.6136V12.5795C83.8036 12.1515 83.6767 11.8201 83.4229 11.5852C83.1692 11.3504 82.8036 11.233 82.3263 11.233C81.8226 11.233 81.4229 11.3428 81.1275 11.5625C80.8358 11.7822 80.6388 12.0417 80.5366 12.3409L78.6161 12.0682C78.7676 11.5379 79.0176 11.0947 79.3661 10.7386C79.7146 10.3788 80.1407 10.1098 80.6445 9.93182C81.1483 9.75 81.7051 9.65909 82.315 9.65909C82.7354 9.65909 83.154 9.70833 83.5707 9.80682C83.9873 9.9053 84.368 10.0682 84.7127 10.2955C85.0574 10.5189 85.3339 10.8239 85.5423 11.2102C85.7544 11.5966 85.8604 12.0795 85.8604 12.6591V18.5H83.8832V17.3011H83.815C83.69 17.5436 83.5138 17.7708 83.2866 17.983C83.0631 18.1913 82.7809 18.3598 82.44 18.4886C82.1029 18.6136 81.707 18.6761 81.2525 18.6761ZM81.7866 17.1648C82.1995 17.1648 82.5574 17.0833 82.8604 16.9205C83.1635 16.7538 83.3964 16.5341 83.5593 16.2614C83.726 15.9886 83.8093 15.6913 83.8093 15.3693V14.3409C83.7449 14.3939 83.6351 14.4432 83.4798 14.4886C83.3282 14.5341 83.1578 14.5739 82.9684 14.608C82.779 14.642 82.5915 14.6723 82.4059 14.6989C82.2203 14.7254 82.0593 14.7481 81.9229 14.767C81.6161 14.8087 81.3415 14.8769 81.0991 14.9716C80.8567 15.0663 80.6654 15.1989 80.5252 15.3693C80.3851 15.536 80.315 15.7519 80.315 16.017C80.315 16.3958 80.4532 16.6818 80.7298 16.875C81.0063 17.0682 81.3585 17.1648 81.7866 17.1648ZM91.4154 18.6705C90.5442 18.6705 89.7961 18.4792 89.1711 18.0966C88.5499 17.714 88.0707 17.1856 87.7336 16.5114C87.4003 15.8333 87.2336 15.053 87.2336 14.1705C87.2336 13.2841 87.4041 12.5019 87.745 11.8239C88.0859 11.142 88.567 10.6117 89.1882 10.233C89.8132 9.85038 90.5518 9.65909 91.4041 9.65909C92.1124 9.65909 92.7393 9.78977 93.2848 10.0511C93.834 10.3087 94.2715 10.6742 94.5973 11.1477C94.923 11.6174 95.1086 12.1667 95.1541 12.7955H93.1882C93.1086 12.375 92.9192 12.0246 92.62 11.7443C92.3245 11.4602 91.9287 11.3182 91.4325 11.3182C91.012 11.3182 90.6427 11.4318 90.3245 11.6591C90.0063 11.8826 89.7582 12.2045 89.5802 12.625C89.406 13.0455 89.3188 13.5492 89.3188 14.1364C89.3188 14.7311 89.406 15.2424 89.5802 15.6705C89.7545 16.0947 89.9988 16.4223 90.3132 16.6534C90.6313 16.8807 91.0045 16.9943 91.4325 16.9943C91.7355 16.9943 92.0063 16.9375 92.245 16.8239C92.4874 16.7064 92.6901 16.5379 92.8529 16.3182C93.0158 16.0985 93.1276 15.8314 93.1882 15.517H95.1541C95.1048 16.1345 94.923 16.6818 94.6086 17.1591C94.2942 17.6326 93.8662 18.0038 93.3245 18.2727C92.7829 18.5379 92.1465 18.6705 91.4154 18.6705ZM98.398 15.7614L98.3923 13.2784H98.7219L101.858 9.77273H104.262L100.404 14.0682H99.9775L98.398 15.7614ZM96.523 18.5V6.86364H98.5798V18.5H96.523ZM102 18.5L99.1594 14.5284L100.546 13.0795L104.46 18.5H102ZM108.817 18.6705C107.942 18.6705 107.186 18.4886 106.55 18.125C105.917 17.7576 105.43 17.2386 105.089 16.5682C104.748 15.8939 104.578 15.1004 104.578 14.1875C104.578 13.2898 104.748 12.5019 105.089 11.8239C105.434 11.142 105.915 10.6117 106.533 10.233C107.15 9.85038 107.875 9.65909 108.709 9.65909C109.247 9.65909 109.754 9.74621 110.231 9.92045C110.712 10.0909 111.137 10.3561 111.504 10.7159C111.875 11.0758 112.167 11.5341 112.379 12.0909C112.591 12.6439 112.697 13.303 112.697 14.0682V14.6989H105.544V13.3125H110.726C110.722 12.9186 110.637 12.5682 110.47 12.2614C110.303 11.9508 110.07 11.7064 109.771 11.5284C109.476 11.3504 109.131 11.2614 108.737 11.2614C108.317 11.2614 107.947 11.3636 107.629 11.5682C107.311 11.7689 107.063 12.0341 106.885 12.3636C106.711 12.6894 106.622 13.0473 106.618 13.4375V14.6477C106.618 15.1553 106.711 15.5909 106.896 15.9545C107.082 16.3144 107.341 16.5909 107.675 16.7841C108.008 16.9735 108.398 17.0682 108.845 17.0682C109.144 17.0682 109.415 17.0265 109.658 16.9432C109.9 16.8561 110.11 16.7292 110.288 16.5625C110.466 16.3958 110.601 16.1894 110.692 15.9432L112.612 16.1591C112.491 16.6667 112.26 17.1098 111.919 17.4886C111.582 17.8636 111.15 18.1553 110.623 18.3636C110.097 18.5682 109.495 18.6705 108.817 18.6705ZM114.117 18.5V9.77273H116.112V11.2273H116.203C116.362 10.7235 116.634 10.3352 117.021 10.0625C117.411 9.78598 117.856 9.64773 118.356 9.64773C118.47 9.64773 118.597 9.65341 118.737 9.66477C118.881 9.67235 119 9.68561 119.095 9.70455V11.5966C119.008 11.5663 118.869 11.5398 118.68 11.517C118.494 11.4905 118.314 11.4773 118.14 11.4773C117.765 11.4773 117.428 11.5587 117.129 11.7216C116.833 11.8807 116.6 12.1023 116.43 12.3864C116.259 12.6705 116.174 12.9981 116.174 13.3693V18.5H114.117Z" fill="#02273A"/>
</svg>
